PathFileType	4	(X/Y/Z)	Patient4_TMGait_0pt4_02_right_30.trc.trc
DataRate	CameraRate	NumFrames	NumMarkers	Units	OrigDataRate	OrigDataStartFrame	OrigNumFrames
76.086956521739	76.086956521739	6	33	mm	76.086956521739	124	       141
Frame#	Time	Sacral			L.Shoulder			Chest			R.Shoulder			Neck			R.ASIS			L.ASIS			R.Thigh.Superior			R.Thigh.Lateral			R.Thigh.Inferior			R.Patella			L.Thigh.Superior			L.Thigh.Lateral			L.Thigh.Inferior			L.Patella			L.Shank.Superior			L.Shank.Lateral			L.Shank.Inferior			R.Shank.Superior			R.Shank.Lateral			R.Shank.Inferior			R.Heel			R.Midfoot.Superior			R.Midfoot.Lateral			R.Toe			L.Heel			L.Midfoot.Lateral			L.Midfoot.Superior			L.Toe			L.Elbow			L.Wrist			R.Elbow			R.Wrist			
		X1	Y1	Z1	X2	Y2	Z2	X3	Y3	Z3	X4	Y4	Z4	X5	Y5	Z5	X6	Y6	Z6	X7	Y7	Z7	X8	Y8	Z8	X9	Y9	Z9	X10	Y10	Z10	X11	Y11	Z11	X12	Y12	Z12	X13	Y13	Z13	X14	Y14	Z14	X15	Y15	Z15	X16	Y16	Z16	X17	Y17	Z17	X18	Y18	Z18	X19	Y19	Z19	X20	Y20	Z20	X21	Y21	Z21	X22	Y22	Z22	X23	Y23	Z23	X24	Y24	Z24	X25	Y25	Z25	X26	Y26	Z26	X27	Y27	Z27	X28	Y28	Z28	X29	Y29	Z29	X30	Y30	Z30	X31	Y31	Z31	X32	Y32	Z32	X33	Y33	Z33	

124	41.186571428571	863.327131423258	1000.378669465656	434.182532548387	1063.093149325544	1434.579315046776	269.516129870647	1141.434693642981	1366.279364018495	443.615884508411	1031.620861526873	1437.349191414138	603.583094885920	1022.331527713635	1494.287749424083	423.403047116845	1083.611026405010	944.037350790520	572.567520355784	1091.690856446189	963.974327457879	296.276455058449	1152.515060869381	755.769142272004	547.287210102207	1091.563463693202	636.682442995339	611.909410358454	1180.733427351992	594.707073847672	535.673671328493	1201.996985682089	509.709644265517	548.008963302978	1104.691999156330	737.380212614688	323.765111606733	998.191677619509	636.220581165763	253.653536433265	1062.087825847961	546.527805928124	319.094242883617	1049.967376256433	479.493430800460	326.908098257006	1018.681347244053	411.011295322113	316.021710459197	919.378596991275	305.360547667004	262.018636153937	958.769866239149	188.761002586176	332.352367725158	1179.266008347311	420.299196671662	559.247465584515	1115.198344647080	313.168128238341	623.499734183561	1173.660966385252	220.605748212292	570.953294576796	1064.436548152503	44.940449771252	546.337237061155	1231.946944057140	105.266184689940	582.664509288499	1148.179630224639	40.059905542000	620.164093467965	1353.553103429691	60.044235435453	609.198434258307	823.338118757074	38.691131788044	375.837344478747	894.190459067574	34.777441415995	292.594096545140	978.524119007751	95.684349649642	318.141083823324	1106.331766540084	43.064453789877	284.495936596300	1134.676384001198	1111.033432133335	113.496527445550	1387.345480855386	1053.590497817954	129.577501122158	905.930234915044	1112.527138063477	705.906134505157	922.946847868000	851.138299261715	716.406981364836	
125	41.199714285714	865.350123990560	998.956549472768	436.886314568071	1062.296540985097	1433.964129881381	272.655353706336	1141.098766616470	1366.296295635288	446.780218765656	1030.744231032227	1436.517912960723	606.796925171613	1021.234419887711	1493.504863494332	426.574955453580	1086.038243616534	942.999322667933	574.986273198927	1093.861700580223	963.634072160135	298.849812199209	1154.963687389184	753.976759176133	548.977123399285	1092.021927737789	634.838291265398	611.890666455630	1181.495878749086	593.013388091490	536.139793118901	1201.095777372404	506.917294205529	547.334724675042	1105.667382548456	736.278603494821	325.007816246728	997.710887601749	635.822936312858	255.470097523424	1061.307289094651	545.480938599053	320.258608274459	1048.953061515910	478.100250598213	327.894401583909	1016.644191681878	410.092411057611	317.059828154875	915.889475234632	305.668607341385	263.073746405526	954.399277975148	188.290087574203	332.730086731944	1176.996806617428	417.055123085449	558.373193431982	1111.119691632833	310.960496381422	622.800078782281	1166.906913039783	217.257004763688	569.356622947223	1053.429648700887	44.264835032191	545.481486885542	1222.042217478310	102.024847855904	580.677504488869	1137.312446940135	38.773605237900	619.186705416532	1343.359676273750	55.016161963962	607.129184771447	817.981798974580	38.578237341831	375.868128594728	888.875733404371	34.683282248007	292.684963917926	973.273648812282	95.601928959530	318.221942578248	1101.098339787638	42.845272282761	284.452482895299	1133.815003698816	1109.897808518628	117.071737000691	1386.362571144746	1050.898684862643	132.471508748111	908.872532962110	1110.034405846411	709.188625776246	931.714354516262	848.945363030763	718.945176741142	
126	41.212857142857	867.354712769861	997.633264826173	439.629078350626	1061.478469112099	1433.442495505368	275.916275771469	1140.802844483903	1366.375794516321	450.036986538716	1029.974849078715	1435.720119398665	610.164990321058	1020.194674904151	1492.806435746580	429.908942774236	1088.504775846351	942.115767707061	577.449264930380	1096.003398814263	963.337784586693	301.511174689107	1157.288398308337	752.300338069716	550.534694118501	1092.739046812754	633.387961118564	612.172320271086	1182.133074244217	591.537111595208	536.527365139900	1200.264368556688	504.458439107141	546.828671595978	1106.995536089179	735.278798998913	326.318780789812	997.777588454048	635.340456133626	257.438118256080	1061.304841725858	544.432714998136	321.544213151885	1048.832528106166	476.530852988545	328.921034400109	1015.265314968074	409.049804954319	318.189262413775	912.852680347849	306.080363019700	264.271715207502	950.264924452349	187.826518785003	333.146738586661	1175.051623682868	414.259409751587	557.756404175191	1107.868893411633	309.047539557529	622.559597759582	1161.099669101458	214.397347305883	568.083750204444	1043.859588573708	43.643688809324	545.053385071373	1213.318956220364	99.600932466009	579.119316332188	1127.929645916425	37.854401197870	618.601430971394	1334.515763773349	51.271377170972	605.441722243054	812.627752379688	38.639332715539	375.885970212458	883.583813778114	34.648392837991	292.790926827462	968.109638786590	95.529001548774	318.285046832837	1095.895118353271	42.550914765392	284.393908160429	1132.435689817982	1108.622498396082	120.864894608244	1384.743075916731	1047.273076877999	135.267341075814	912.333487831724	1107.457875694047	712.747926338165	941.460657150007	846.825961269524	721.778259724651	
127	41.226000000000	869.292577629092	996.477304124018	442.389103546436	1060.674901916333	1433.078481721183	279.275554185668	1140.555418465463	1366.545094188960	453.362814233253	1029.332690632872	1435.011989200198	613.653309789176	1019.236830988804	1492.247274388971	433.377884505970	1090.922369774158	941.449638219198	579.964881908450	1098.046686964652	963.123587994238	304.253091011333	1159.396426037763	750.846872240648	551.979994424679	1093.701318877206	632.381526723653	612.840705462772	1182.623548389038	590.336812717461	536.929194564917	1199.492314187179	502.424886781678	546.636912287082	1108.668814849057	734.445678884892	327.764449355837	998.486546540242	634.787485447911	259.549710011121	1062.212970491556	543.422071586355	322.956388979300	1049.742074737473	474.813613826598	329.952671200498	1014.659422347246	407.914144105533	319.376295318579	910.369341179029	306.665881803063	265.585327734401	946.438390558645	187.442307622283	333.571399053287	1173.423287675991	411.984779393397	557.486260417356	1105.406564277542	307.482305946477	622.785429446188	1156.260696288153	212.102231344833	567.186880621266	1035.807978328474	43.127158285655	544.962555979335	1205.856827707359	97.981870779789	578.037921001719	1120.068854238771	37.281133828359	618.356257240346	1327.053373600738	48.746031426974	604.221631352201	807.305168310788	39.026923636784	375.876654715332	878.335546146489	34.748353715477	292.901602746944	963.087736978134	95.489829938441	318.301102735585	1090.727110756593	42.172010148239	284.318147949323	1130.544064450930	1107.269948198253	124.892916478639	1382.442481419202	1042.701860795547	137.936552474497	916.293673608813	1104.892096016273	716.550359326982	952.141679004023	844.918415735544	724.888698780741	
128	41.239142857143	871.121833992655	995.535773278581	445.169415766724	1059.909254733430	1432.921763450990	282.707832466093	1140.357877181583	1366.822461763560	456.730637488668	1028.831278912641	1434.440235530279	617.224654639442	1018.371850483669	1491.867637458913	436.949984336727	1093.215621156356	941.044280467728	582.549497674831	1099.920501945704	963.023695257712	307.067955716705	1161.232043907429	749.697393429438	553.369775838052	1094.852471400403	631.810845281476	613.939368549995	1182.963694058025	589.427689148808	537.458491025200	1198.741034935375	500.839276018402	546.866467934910	1110.669760128607	733.843255414530	329.404229711501	999.922233694108	634.185573743772	261.784735812065	1064.155886632567	542.495546694287	324.480220393154	1051.805997530700	472.995245244643	330.936409174462	1014.941983507863	406.729088458153	320.571217978687	908.548860271830	307.507065750185	266.973490696031	943.005753069878	187.228765879537	333.963358802299	1172.037087584771	410.233310273416	557.607759830341	1103.560844966153	306.274927501149	623.428934125163	1152.255555066058	210.372782072683	566.673578755258	1029.128828765890	42.744679823750	545.107510195133	1199.541729618254	97.065421674953	577.417538016836	1113.553667568579	36.998731640722	618.375371301868	1320.809405366566	47.248978354320	603.477190546905	802.060854654631	39.929441988985	375.824260480539	873.160209755705	35.085658460278	293.002632657625	958.275971791070	95.519584252270	318.236722190378	1085.597184208631	41.707471901438	284.224759610489	1128.152659882522	1105.901977544388	129.169413339826	1379.399302819668	1037.174774926827	140.462061068118	920.725494908668	1102.427436656067	720.567134930201	963.733767763025	843.371473327511	728.249771984944	
129	41.252285714286	872.807659411975	994.829057027667	447.998738319542	1059.185443148018	1432.998669275675	286.188246123254	1140.204240571866	1367.214152497125	460.111016780595	1028.479040392556	1434.035322423731	620.843648666655	1017.598103328632	1491.687956206175	440.593089136345	1095.330706492897	940.918476765665	585.221950527029	1101.557073739036	963.058689999996	309.947222340993	1162.769521410380	748.885604331132	554.796111885332	1096.067867791735	631.610961669974	615.463670449312	1183.136708107190	588.776719184947	538.230317162490	1197.932258718190	499.661613313977	547.563657721890	1112.977015797488	733.527816335332	331.281107051232	1002.155966196518	633.561616916061	264.112063594350	1067.241761334477	541.705082741791	326.083731667675	1055.129824214656	471.139517996102	331.811632120521	1016.225976383180	405.548660472827	321.716492563108	907.508091863861	308.692044166796	268.386629008320	940.066976461074	187.290782291482	334.277819834727	1170.759580608751	408.949885815662	558.119206901008	1102.072158616156	305.394794307622	624.398845278815	1148.849822121011	209.150335293817	566.512408041214	1023.533546190474	42.501776716472	545.391511742066	1194.135412484165	96.695955781024	577.193303908151	1108.079349907499	36.934006780545	618.575076943580	1315.503903656777	46.525305833768	603.156370398547	796.961810049604	41.561699880773	375.713258019932	868.097197676899	35.789343761025	293.077545190187	953.752790592477	95.665646520448	318.059164706797	1080.505645731894	41.165620555802	284.115918085475	1125.282196606304	1104.571446109230	133.699843197113	1375.534294517344	1030.684377803597	142.841386814474	925.594175519279	1100.142870885913	724.779301775030	976.232141528211	842.339292525153	731.825333690221	
